# xmcd
#
# Track frame offsets:
#	150
#	15842
#	28799
#	44444
#	59738
#	76746
#	98564
#	116650
#	128705
#	143274
#
# Disc length: 2189 seconds
#
# Revision: 1
# Processed by: cddbd v1.5.2PL0 Copyright (c) Steve Scherf et al.
# Submitted via: audiograbber 1.83.01
#
DISCID=73088b0a
DTITLE=Lauren Jenkins - No Saint
DYEAR=2019
DGENRE=Country
TTITLE0=Give Up The Ghost
TTITLE1=You'll Never Know
TTITLE2=Maker's Mark and You
TTITLE3=Payday
TTITLE4=No Saint
TTITLE5=Running Out Of Road
TTITLE6=Cadillac
TTITLE7=My Bar
TTITLE8=All Good Things
TTITLE9=Blood
EXTD=
EXTT0=
EXTT1=
EXTT2=
EXTT3=
EXTT4=
EXTT5=
EXTT6=
EXTT7=
EXTT8=
EXTT9=
PLAYORDER=
